<svg width="131" height="25" viewBox="0 0 131 25" fill="none" xmlns="http://www.w3.org/2000/svg">
<g filter="url(#filter0_dddd)">
<path d="M15.3672 4.78516H10.1406V19H6.625V4.78516H1.46875V1.9375H15.3672V4.78516ZM75.7656 10.8555C75.7656 12.5352 75.4688 14.0078 74.875 15.2734C74.2812 16.5391 73.4297 17.5156 72.3203 18.2031C71.2188 18.8906 69.9531 19.2344 68.5234 19.2344C67.1094 19.2344 65.8477 18.8945 64.7383 18.2148C63.6289 17.5352 62.7695 16.5664 62.1602 15.3086C61.5508 14.043 61.2422 12.5898 61.2344 10.9492V10.1055C61.2344 8.42578 61.5352 6.94922 62.1367 5.67578C62.7461 4.39453 63.6016 3.41406 64.7031 2.73438C65.8125 2.04687 67.0781 1.70312 68.5 1.70312C69.9219 1.70312 71.1836 2.04687 72.2852 2.73438C73.3945 3.41406 74.25 4.39453 74.8516 5.67578C75.4609 6.94922 75.7656 8.42188 75.7656 10.0938V10.8555ZM72.2031 10.082C72.2031 8.29297 71.8828 6.93359 71.2422 6.00391C70.6016 5.07422 69.6875 4.60938 68.5 4.60938C67.3203 4.60938 66.4102 5.07031 65.7695 5.99219C65.1289 6.90625 64.8047 8.25 64.7969 10.0234V10.8555C64.7969 12.5977 65.1172 13.9492 65.7578 14.9102C66.3984 15.8711 67.3203 16.3516 68.5234 16.3516C69.7031 16.3516 70.6094 15.8906 71.2422 14.9688C71.875 14.0391 72.1953 12.6875 72.2031 10.9141V10.082ZM107.418 6.32031L107.523 7.78516C108.43 6.65234 109.645 6.08594 111.168 6.08594C112.512 6.08594 113.512 6.48047 114.168 7.26953C114.824 8.05859 115.16 9.23828 115.176 10.8086V19H111.789V10.8906C111.789 10.1719 111.633 9.65234 111.32 9.33203C111.008 9.00391 110.488 8.83984 109.762 8.83984C108.809 8.83984 108.094 9.24609 107.617 10.0586V19H104.23V6.32031H107.418Z" fill="#74C043"/>
<path d="M27.0156 15.4844H20.8516L19.6797 19H15.9414L22.293 1.9375H25.5508L31.9375 19H28.1992L27.0156 15.4844ZM21.8008 12.6367H26.0664L23.9219 6.25L21.8008 12.6367ZM81.2148 6.32031L81.3203 7.78516C82.2266 6.65234 83.4414 6.08594 84.9648 6.08594C86.3086 6.08594 87.3086 6.48047 87.9648 7.26953C88.6211 8.05859 88.957 9.23828 88.9727 10.8086V19H85.5859V10.8906C85.5859 10.1719 85.4297 9.65234 85.1172 9.33203C84.8047 9.00391 84.2852 8.83984 83.5586 8.83984C82.6055 8.83984 81.8906 9.24609 81.4141 10.0586V19H78.0273V6.32031H81.2148ZM123.59 19.2344C121.73 19.2344 120.215 18.6641 119.043 17.5234C117.879 16.3828 117.297 14.8633 117.297 12.9648V12.6367C117.297 11.3633 117.543 10.2266 118.035 9.22656C118.527 8.21875 119.223 7.44531 120.121 6.90625C121.027 6.35937 122.059 6.08594 123.215 6.08594C124.949 6.08594 126.312 6.63281 127.305 7.72656C128.305 8.82031 128.805 10.3711 128.805 12.3789V13.7617H120.73C120.84 14.5898 121.168 15.2539 121.715 15.7539C122.27 16.2539 122.969 16.5039 123.812 16.5039C125.117 16.5039 126.137 16.0312 126.871 15.0859L128.535 16.9492C128.027 17.668 127.34 18.2305 126.473 18.6367C125.605 19.0352 124.645 19.2344 123.59 19.2344ZM123.203 8.82812C122.531 8.82812 121.984 9.05469 121.562 9.50781C121.148 9.96094 120.883 10.6094 120.766 11.4531H125.477V11.1836C125.461 10.4336 125.258 9.85547 124.867 9.44922C124.477 9.03516 123.922 8.82812 123.203 8.82812Z" fill="#E54520"/>
<path d="M38.875 12.1562L37.0469 14.125V19H33.5312V1.9375H37.0469V9.67188L38.5938 7.55078L42.9414 1.9375H47.2656L41.207 9.51953L47.4414 19H43.2578L38.875 12.1562ZM95.125 19H91.7266V1H95.125V19Z" fill="#FFE700"/>
<path d="M52.5039 19H48.9883V1.9375H52.5039V19ZM101.5 19H98.1016V6.32031H101.5V19ZM97.9023 3.03906C97.9023 2.53125 98.0703 2.11328 98.4062 1.78516C98.75 1.45703 99.2148 1.29297 99.8008 1.29297C100.379 1.29297 100.84 1.45703 101.184 1.78516C101.527 2.11328 101.699 2.53125 101.699 3.03906C101.699 3.55469 101.523 3.97656 101.172 4.30469C100.828 4.63281 100.371 4.79688 99.8008 4.79688C99.2305 4.79688 98.7695 4.63281 98.418 4.30469C98.0742 3.97656 97.9023 3.55469 97.9023 3.03906Z" fill="#00BCF2"/>
<path d="M15.3672 4.78516V5.78516C15.9195 5.78516 16.3672 5.33744 16.3672 4.78516H15.3672ZM10.1406 4.78516V3.78516C9.58834 3.78516 9.14062 4.23287 9.14062 4.78516H10.1406ZM10.1406 19V20C10.6929 20 11.1406 19.5523 11.1406 19H10.1406ZM6.625 19H5.625C5.625 19.5523 6.07272 20 6.625 20V19ZM6.625 4.78516H7.625C7.625 4.23287 7.17728 3.78516 6.625 3.78516V4.78516ZM1.46875 4.78516H0.46875C0.46875 5.33744 0.916465 5.78516 1.46875 5.78516V4.78516ZM1.46875 1.9375V0.9375C0.916465 0.9375 0.46875 1.38522 0.46875 1.9375H1.46875ZM15.3672 1.9375H16.3672C16.3672 1.38522 15.9195 0.9375 15.3672 0.9375V1.9375ZM15.3672 3.78516H10.1406V5.78516H15.3672V3.78516ZM9.14062 4.78516V19H11.1406V4.78516H9.14062ZM10.1406 18H6.625V20H10.1406V18ZM7.625 19V4.78516H5.625V19H7.625ZM6.625 3.78516H1.46875V5.78516H6.625V3.78516ZM2.46875 4.78516V1.9375H0.46875V4.78516H2.46875ZM1.46875 2.9375H15.3672V0.9375H1.46875V2.9375ZM14.3672 1.9375V4.78516H16.3672V1.9375H14.3672ZM27.0156 15.4844L27.9634 15.1653C27.8264 14.7584 27.445 14.4844 27.0156 14.4844V15.4844ZM20.8516 15.4844V14.4844C20.4211 14.4844 20.039 14.7598 19.9029 15.1681L20.8516 15.4844ZM19.6797 19V20C20.1101 20 20.4923 19.7246 20.6284 19.3162L19.6797 19ZM15.9414 19L15.0042 18.6511C14.89 18.9581 14.9333 19.3016 15.1202 19.5706C15.3071 19.8396 15.6139 20 15.9414 20V19ZM22.293 1.9375V0.9375C21.8752 0.9375 21.5015 1.19715 21.3558 1.58863L22.293 1.9375ZM25.5508 1.9375L26.4873 1.58694C26.3411 1.19634 25.9678 0.9375 25.5508 0.9375V1.9375ZM31.9375 19V20C32.2654 20 32.5724 19.8393 32.7593 19.5698C32.9461 19.3004 32.989 18.9565 32.874 18.6494L31.9375 19ZM28.1992 19L27.2515 19.3191C27.3885 19.726 27.7699 20 28.1992 20V19ZM21.8008 12.6367L20.8517 12.3215C20.7505 12.6264 20.8019 12.9614 20.9899 13.2219C21.1778 13.4824 21.4795 13.6367 21.8008 13.6367V12.6367ZM26.0664 12.6367V13.6367C26.3882 13.6367 26.6904 13.4818 26.8783 13.2205C27.0662 12.9592 27.1168 12.6235 27.0144 12.3184L26.0664 12.6367ZM23.9219 6.25L24.8699 5.93169C24.7329 5.52384 24.3505 5.24929 23.9202 5.25C23.49 5.25071 23.1084 5.52652 22.9728 5.93482L23.9219 6.25ZM27.0156 14.4844H20.8516V16.4844H27.0156V14.4844ZM19.9029 15.1681L18.731 18.6838L20.6284 19.3162L21.8002 15.8006L19.9029 15.1681ZM19.6797 18H15.9414V20H19.6797V18ZM16.8786 19.3489L23.2301 2.28637L21.3558 1.58863L15.0042 18.6511L16.8786 19.3489ZM22.293 2.9375H25.5508V0.9375H22.293V2.9375ZM24.6142 2.28806L31.001 19.3506L32.874 18.6494L26.4873 1.58694L24.6142 2.28806ZM31.9375 18H28.1992V20H31.9375V18ZM29.1469 18.6809L27.9634 15.1653L26.0679 15.8034L27.2515 19.3191L29.1469 18.6809ZM21.8008 13.6367H26.0664V11.6367H21.8008V13.6367ZM27.0144 12.3184L24.8699 5.93169L22.9739 6.56831L25.1184 12.955L27.0144 12.3184ZM22.9728 5.93482L20.8517 12.3215L22.7498 12.9519L24.8709 6.56518L22.9728 5.93482ZM38.875 12.1562L39.7171 11.617C39.5503 11.3565 39.2723 11.1879 38.9643 11.1602C38.6562 11.1326 38.3527 11.2491 38.1422 11.4758L38.875 12.1562ZM37.0469 14.125L36.3141 13.4445C36.1423 13.6295 36.0469 13.8726 36.0469 14.125H37.0469ZM37.0469 19V20C37.5992 20 38.0469 19.5523 38.0469 19H37.0469ZM33.5312 19H32.5312C32.5312 19.5523 32.979 20 33.5312 20V19ZM33.5312 1.9375V0.9375C32.979 0.9375 32.5312 1.38522 32.5312 1.9375H33.5312ZM37.0469 1.9375H38.0469C38.0469 1.38522 37.5992 0.9375 37.0469 0.9375V1.9375ZM37.0469 9.67188H36.0469C36.0469 10.1048 36.3254 10.4885 36.737 10.6227C37.1486 10.7568 37.5998 10.6109 37.8548 10.2611L37.0469 9.67188ZM38.5938 7.55078L37.8032 6.93844C37.7973 6.94606 37.7915 6.95376 37.7858 6.96155L38.5938 7.55078ZM42.9414 1.9375V0.9375C42.6321 0.9375 42.3402 1.08063 42.1508 1.32516L42.9414 1.9375ZM47.2656 1.9375L48.0468 2.56175C48.2868 2.26153 48.3334 1.85038 48.1668 1.50406C48.0002 1.15773 47.6499 0.9375 47.2656 0.9375V1.9375ZM41.207 9.51953L40.4258 8.89528C40.1555 9.23351 40.1336 9.70724 40.3715 10.069L41.207 9.51953ZM47.4414 19V20C47.8091 20 48.1471 19.7982 48.3216 19.4746C48.4961 19.151 48.4789 18.7577 48.2769 18.4506L47.4414 19ZM43.2578 19L42.4157 19.5393C42.5995 19.8264 42.9169 20 43.2578 20V19ZM38.1422 11.4758L36.3141 13.4445L37.7797 14.8055L39.6078 12.8367L38.1422 11.4758ZM36.0469 14.125V19H38.0469V14.125H36.0469ZM37.0469 18H33.5312V20H37.0469V18ZM34.5312 19V1.9375H32.5312V19H34.5312ZM33.5312 2.9375H37.0469V0.9375H33.5312V2.9375ZM36.0469 1.9375V9.67188H38.0469V1.9375H36.0469ZM37.8548 10.2611L39.4017 8.14001L37.7858 6.96155L36.2389 9.08264L37.8548 10.2611ZM39.3843 8.16312L43.732 2.54984L42.1508 1.32516L37.8032 6.93844L39.3843 8.16312ZM42.9414 2.9375H47.2656V0.9375H42.9414V2.9375ZM46.4844 1.31325L40.4258 8.89528L41.9883 10.1438L48.0468 2.56175L46.4844 1.31325ZM40.3715 10.069L46.6059 19.5494L48.2769 18.4506L42.0426 8.97009L40.3715 10.069ZM47.4414 18H43.2578V20H47.4414V18ZM44.0999 18.4607L39.7171 11.617L38.0329 12.6955L42.4157 19.5393L44.0999 18.4607ZM52.5039 19V20C53.0562 20 53.5039 19.5523 53.5039 19H52.5039ZM48.9883 19H47.9883C47.9883 19.5523 48.436 20 48.9883 20V19ZM48.9883 1.9375V0.9375C48.436 0.9375 47.9883 1.38522 47.9883 1.9375H48.9883ZM52.5039 1.9375H53.5039C53.5039 1.38522 53.0562 0.9375 52.5039 0.9375V1.9375ZM52.5039 18H48.9883V20H52.5039V18ZM49.9883 19V1.9375H47.9883V19H49.9883ZM48.9883 2.9375H52.5039V0.9375H48.9883V2.9375ZM51.5039 1.9375V19H53.5039V1.9375H51.5039ZM72.3203 18.2031L71.7935 17.3531L71.7909 17.3548L72.3203 18.2031ZM62.1602 15.3086L61.2592 15.7424L61.2602 15.7446L62.1602 15.3086ZM61.2344 10.9492H60.2344L60.2344 10.954L61.2344 10.9492ZM62.1367 5.67578L61.2337 5.24627L61.2325 5.24865L62.1367 5.67578ZM64.7031 2.73438L65.2282 3.58541L65.2299 3.58438L64.7031 2.73438ZM72.2852 2.73438L71.7557 3.58274L71.7627 3.58706L72.2852 2.73438ZM74.8516 5.67578L73.9463 6.10079L73.9495 6.10743L74.8516 5.67578ZM65.7695 5.99219L66.5884 6.56612L66.5907 6.56284L65.7695 5.99219ZM64.7969 10.0234L63.7969 10.019V10.0234H64.7969ZM71.2422 14.9688L72.0666 15.5347L72.0689 15.5314L71.2422 14.9688ZM72.2031 10.9141L73.2031 10.9185V10.9141H72.2031ZM74.7656 10.8555C74.7656 12.4175 74.4898 13.7401 73.9697 14.8487L75.7803 15.6982C76.4477 14.2756 76.7656 12.6528 76.7656 10.8555H74.7656ZM73.9697 14.8487C73.4521 15.952 72.7263 16.775 71.7935 17.3531L72.8471 19.0531C74.133 18.2562 75.1104 17.1262 75.7803 15.6982L73.9697 14.8487ZM71.7909 17.3548C70.8639 17.9333 69.7855 18.2344 68.5234 18.2344V20.2344C70.1208 20.2344 71.5736 19.8479 72.8498 19.0515L71.7909 17.3548ZM68.5234 18.2344C67.2772 18.2344 66.1993 17.9372 65.2607 17.3622L64.2159 19.0675C65.496 19.8519 66.9416 20.2344 68.5234 20.2344V18.2344ZM65.2607 17.3622C64.3266 16.7899 63.5925 15.9716 63.0601 14.8726L61.2602 15.7446C61.9465 17.1612 62.9312 18.2804 64.2159 19.0675L65.2607 17.3622ZM63.0612 14.8748C62.5262 13.7637 62.2416 12.4613 62.2344 10.9445L60.2344 10.954C60.2428 12.7184 60.5753 14.3222 61.2592 15.7424L63.0612 14.8748ZM62.2344 10.9492V10.1055H60.2344V10.9492H62.2344ZM62.2344 10.1055C62.2344 8.54538 62.5134 7.21952 63.0409 6.10291L61.2325 5.24865C60.5569 6.67892 60.2344 8.30618 60.2344 10.1055H62.2344ZM63.0398 6.10529C63.5747 4.98064 64.3063 4.15428 65.2282 3.58541L64.178 1.88334C62.8969 2.67385 61.9175 3.80842 61.2337 5.24628L63.0398 6.10529ZM65.2299 3.58438C66.167 3.00364 67.247 2.70312 68.5 2.70312V0.703125C66.9093 0.703125 65.458 1.09011 64.1764 1.88437L65.2299 3.58438ZM68.5 2.70312C69.7531 2.70312 70.8279 3.00365 71.7557 3.58271L72.8146 1.88604C71.5393 1.0901 70.0907 0.703125 68.5 0.703125V2.70312ZM71.7627 3.58706C72.6908 4.15567 73.4202 4.9802 73.9464 6.10078L75.7568 5.25078C75.0798 3.80886 74.0983 2.67245 72.8076 1.88169L71.7627 3.58706ZM73.9495 6.10743C74.4836 7.2235 74.7656 8.54399 74.7656 10.0938H76.7656C76.7656 8.29976 76.4383 6.67494 75.7536 5.24413L73.9495 6.10743ZM74.7656 10.0938V10.8555H76.7656V10.0938H74.7656ZM73.2031 10.082C73.2031 8.19942 72.8706 6.60467 72.0656 5.4365L70.4188 6.57132C70.895 7.26252 71.2031 8.38651 71.2031 10.082H73.2031ZM72.0656 5.4365C71.2272 4.21973 69.9962 3.60938 68.5 3.60938V5.60938C69.3788 5.60938 69.9759 5.92871 70.4188 6.57132L72.0656 5.4365ZM68.5 3.60938C67.0125 3.60938 65.7869 4.21488 64.9483 5.42153L66.5907 6.56284C67.0335 5.92574 67.6281 5.60938 68.5 5.60938V3.60938ZM64.9506 5.41826C64.1425 6.57131 63.8051 8.15226 63.7969 10.019L65.7969 10.0278C65.8043 8.34774 66.1153 7.24119 66.5884 6.56612L64.9506 5.41826ZM63.7969 10.0234V10.8555H65.7969V10.0234H63.7969ZM63.7969 10.8555C63.7969 12.7011 64.1331 14.2758 64.9258 15.4649L66.5899 14.3555C66.1013 13.6226 65.7969 12.4942 65.7969 10.8555H63.7969ZM64.9258 15.4649C65.7609 16.7176 67.0027 17.3516 68.5234 17.3516V15.3516C67.6379 15.3516 67.0359 15.0246 66.5899 14.3555L64.9258 15.4649ZM68.5234 17.3516C70.0112 17.3516 71.2355 16.7455 72.0666 15.5347L70.4177 14.4028C69.9833 15.0357 69.3951 15.3516 68.5234 15.3516V17.3516ZM72.0689 15.5314C72.8613 14.3672 73.1949 12.7853 73.2031 10.9185L71.2031 10.9097C71.1957 12.5897 70.8887 13.7109 70.4155 14.4061L72.0689 15.5314ZM73.2031 10.9141V10.082H71.2031V10.9141H73.2031ZM81.2148 6.32031L82.2123 6.2485C82.1746 5.72543 81.7393 5.32031 81.2148 5.32031V6.32031ZM81.3203 7.78516L80.3229 7.85697C80.3524 8.26744 80.6304 8.61789 81.0234 8.74007C81.4164 8.86225 81.8441 8.7312 82.1012 8.40985L81.3203 7.78516ZM88.9727 10.8086H89.9727L89.9726 10.7986L88.9727 10.8086ZM88.9727 19V20C89.5249 20 89.9727 19.5523 89.9727 19H88.9727ZM85.5859 19H84.5859C84.5859 19.5523 85.0337 20 85.5859 20V19ZM85.1172 9.33203L84.393 10.0217L84.4014 10.0304L85.1172 9.33203ZM81.4141 10.0586L80.5515 9.55266C80.4615 9.70608 80.4141 9.88073 80.4141 10.0586H81.4141ZM81.4141 19V20C81.9663 20 82.4141 19.5523 82.4141 19H81.4141ZM78.0273 19H77.0273C77.0273 19.5523 77.4751 20 78.0273 20V19ZM78.0273 6.32031V5.32031C77.4751 5.32031 77.0273 5.76803 77.0273 6.32031H78.0273ZM80.2174 6.39213L80.3229 7.85697L82.3177 7.71334L82.2123 6.2485L80.2174 6.39213ZM82.1012 8.40985C82.8069 7.52766 83.7276 7.08594 84.9648 7.08594V5.08594C83.1552 5.08594 81.6462 5.77702 80.5394 7.16046L82.1012 8.40985ZM84.9648 7.08594C86.11 7.08594 86.7848 7.41458 87.196 7.90897L88.7337 6.6301C87.8324 5.54636 86.5072 5.08594 84.9648 5.08594V7.08594ZM87.196 7.90897C87.6448 8.4486 87.9582 9.36216 87.9727 10.8185L89.9726 10.7986C89.9558 9.11441 89.5974 7.66858 88.7337 6.6301L87.196 7.90897ZM87.9727 10.8086V19H89.9727V10.8086H87.9727ZM88.9727 18H85.5859V20H88.9727V18ZM86.5859 19V10.8906H84.5859V19H86.5859ZM86.5859 10.8906C86.5859 10.0623 86.4114 9.22663 85.833 8.63371L84.4014 10.0304C84.4479 10.0781 84.5859 10.2814 84.5859 10.8906H86.5859ZM85.8413 8.64238C85.2526 8.02424 84.3989 7.83984 83.5586 7.83984V9.83984C84.1715 9.83984 84.3568 9.98357 84.3931 10.0217L85.8413 8.64238ZM83.5586 7.83984C82.2559 7.83984 81.2102 8.42964 80.5515 9.55266L82.2766 10.5645C82.5711 10.0625 82.9551 9.83984 83.5586 9.83984V7.83984ZM80.4141 10.0586V19H82.4141V10.0586H80.4141ZM81.4141 18H78.0273V20H81.4141V18ZM79.0273 19V6.32031H77.0273V19H79.0273ZM78.0273 7.32031H81.2148V5.32031H78.0273V7.32031ZM95.125 19V20C95.6773 20 96.125 19.5523 96.125 19H95.125ZM91.7266 19H90.7266C90.7266 19.5523 91.1743 20 91.7266 20V19ZM91.7266 1V0C91.1743 0 90.7266 0.447715 90.7266 1H91.7266ZM95.125 1H96.125C96.125 0.447715 95.6773 0 95.125 0V1ZM95.125 18H91.7266V20H95.125V18ZM92.7266 19V1H90.7266V19H92.7266ZM91.7266 2H95.125V0H91.7266V2ZM94.125 1V19H96.125V1H94.125ZM101.5 19V20C102.052 20 102.5 19.5523 102.5 19H101.5ZM98.1016 19H97.1016C97.1016 19.5523 97.5493 20 98.1016 20V19ZM98.1016 6.32031V5.32031C97.5493 5.32031 97.1016 5.76803 97.1016 6.32031H98.1016ZM101.5 6.32031H102.5C102.5 5.76803 102.052 5.32031 101.5 5.32031V6.32031ZM98.4062 1.78516L97.7157 1.06175L97.7075 1.06978L98.4062 1.78516ZM101.172 4.30469L100.49 3.57359L100.481 3.58133L101.172 4.30469ZM98.418 4.30469L97.7274 5.02809L97.7356 5.03574L98.418 4.30469ZM101.5 18H98.1016V20H101.5V18ZM99.1016 19V6.32031H97.1016V19H99.1016ZM98.1016 7.32031H101.5V5.32031H98.1016V7.32031ZM100.5 6.32031V19H102.5V6.32031H100.5ZM98.9023 3.03906C98.9023 2.77626 98.9784 2.62417 99.105 2.50053L97.7075 1.06978C97.1622 1.60239 96.9023 2.28624 96.9023 3.03906H98.9023ZM99.0967 2.50851C99.2133 2.39722 99.4089 2.29297 99.8008 2.29297V0.292969C99.0208 0.292969 98.2867 0.516842 97.7158 1.0618L99.0967 2.50851ZM99.8008 2.29297C100.181 2.29297 100.374 2.39485 100.493 2.50851L101.874 1.0618C101.306 0.519209 100.577 0.292969 99.8008 0.292969V2.29297ZM100.493 2.50851C100.625 2.63397 100.699 2.78362 100.699 3.03906H102.699C102.699 2.27888 102.43 1.59259 101.874 1.0618L100.493 2.50851ZM100.699 3.03906C100.699 3.2999 100.623 3.44939 100.49 3.57363L101.854 5.03574C102.424 4.50373 102.699 3.80947 102.699 3.03906H100.699ZM100.481 3.58133C100.36 3.69741 100.169 3.79688 99.8008 3.79688V5.79688C100.574 5.79688 101.296 5.56821 101.862 5.02804L100.481 3.58133ZM99.8008 3.79688C99.4337 3.79688 99.2331 3.69756 99.1003 3.57363L97.7356 5.03574C98.306 5.56807 99.0272 5.79688 99.8008 5.79688V3.79688ZM99.1084 3.58133C98.9803 3.45902 98.9023 3.30723 98.9023 3.03906H96.9023C96.9023 3.80215 97.1681 4.49411 97.7275 5.02804L99.1084 3.58133ZM107.418 6.32031L108.415 6.2485C108.378 5.72543 107.942 5.32031 107.418 5.32031V6.32031ZM107.523 7.78516L106.526 7.85697C106.556 8.26744 106.834 8.61789 107.227 8.74007C107.62 8.86225 108.047 8.7312 108.304 8.40985L107.523 7.78516ZM115.176 10.8086H116.176L116.176 10.7986L115.176 10.8086ZM115.176 19V20C115.728 20 116.176 19.5523 116.176 19H115.176ZM111.789 19H110.789C110.789 19.5523 111.237 20 111.789 20V19ZM111.32 9.33203L110.596 10.0217L110.605 10.0304L111.32 9.33203ZM107.617 10.0586L106.755 9.55266C106.665 9.70608 106.617 9.88073 106.617 10.0586H107.617ZM107.617 19V20C108.169 20 108.617 19.5523 108.617 19H107.617ZM104.23 19H103.23C103.23 19.5523 103.678 20 104.23 20V19ZM104.23 6.32031V5.32031C103.678 5.32031 103.23 5.76803 103.23 6.32031H104.23ZM106.421 6.39213L106.526 7.85697L108.521 7.71334L108.415 6.2485L106.421 6.39213ZM108.304 8.40985C109.01 7.52766 109.931 7.08594 111.168 7.08594V5.08594C109.358 5.08594 107.849 5.77702 106.743 7.16046L108.304 8.40985ZM111.168 7.08594C112.313 7.08594 112.988 7.41458 113.399 7.90897L114.937 6.6301C114.035 5.54636 112.71 5.08594 111.168 5.08594V7.08594ZM113.399 7.90897C113.848 8.4486 114.161 9.36216 114.176 10.8185L116.176 10.7986C116.159 9.11441 115.801 7.66858 114.937 6.6301L113.399 7.90897ZM114.176 10.8086V19H116.176V10.8086H114.176ZM115.176 18H111.789V20H115.176V18ZM112.789 19V10.8906H110.789V19H112.789ZM112.789 10.8906C112.789 10.0623 112.615 9.22663 112.036 8.63371L110.605 10.0304C110.651 10.0781 110.789 10.2814 110.789 10.8906H112.789ZM112.044 8.64238C111.456 8.02424 110.602 7.83984 109.762 7.83984V9.83984C110.375 9.83984 110.56 9.98357 110.596 10.0217L112.044 8.64238ZM109.762 7.83984C108.459 7.83984 107.413 8.42964 106.755 9.55266L108.48 10.5645C108.774 10.0625 109.158 9.83984 109.762 9.83984V7.83984ZM106.617 10.0586V19H108.617V10.0586H106.617ZM107.617 18H104.23V20H107.617V18ZM105.23 19V6.32031H103.23V19H105.23ZM104.23 7.32031H107.418V5.32031H104.23V7.32031ZM119.043 17.5234L118.343 18.2377L118.345 18.24L119.043 17.5234ZM118.035 9.22656L118.932 9.66816L118.934 9.6654L118.035 9.22656ZM120.121 6.90625L120.636 7.76375L120.638 7.76244L120.121 6.90625ZM127.305 7.72656L126.564 8.39845L126.567 8.40133L127.305 7.72656ZM128.805 13.7617V14.7617C129.357 14.7617 129.805 14.314 129.805 13.7617H128.805ZM120.73 13.7617V12.7617C120.442 12.7617 120.168 12.8859 119.978 13.1025C119.789 13.3191 119.701 13.6071 119.739 13.8927L120.73 13.7617ZM121.715 15.7539L121.04 16.492L121.045 16.4967L121.715 15.7539ZM126.871 15.0859L127.617 14.4198C127.419 14.1985 127.133 14.0764 126.837 14.0865C126.54 14.0967 126.263 14.2381 126.081 14.4724L126.871 15.0859ZM128.535 16.9492L129.352 17.5263C129.621 17.1459 129.591 16.6304 129.281 16.2831L128.535 16.9492ZM126.473 18.6367L126.89 19.5454L126.897 19.5423L126.473 18.6367ZM121.562 9.50781L120.831 8.82636L120.824 8.83324L121.562 9.50781ZM120.766 11.4531L119.775 11.3156C119.735 11.602 119.822 11.8917 120.011 12.1098C120.201 12.3279 120.476 12.4531 120.766 12.4531V11.4531ZM125.477 11.4531V12.4531C126.029 12.4531 126.477 12.0054 126.477 11.4531H125.477ZM125.477 11.1836H126.477C126.477 11.1767 126.476 11.1697 126.476 11.1628L125.477 11.1836ZM124.867 9.44922L124.14 10.1355L124.146 10.1423L124.867 9.44922ZM123.59 18.2344C121.952 18.2344 120.7 17.7404 119.74 16.8068L118.345 18.24C119.73 19.5877 121.509 20.2344 123.59 20.2344V18.2344ZM119.743 16.8092C118.803 15.8878 118.297 14.6426 118.297 12.9648H116.297C116.297 15.084 116.955 16.8778 118.343 18.2377L119.743 16.8092ZM118.297 12.9648V12.6367H116.297V12.9648H118.297ZM118.297 12.6367C118.297 11.4945 118.517 10.5124 118.932 9.66816L117.138 8.78497C116.569 9.94074 116.297 11.2321 116.297 12.6367H118.297ZM118.934 9.6654C119.347 8.81852 119.915 8.19623 120.636 7.76374L119.607 6.04876C118.531 6.6944 117.707 7.61898 117.137 8.78773L118.934 9.6654ZM120.638 7.76244C121.374 7.31824 122.223 7.08594 123.215 7.08594V5.08594C121.894 5.08594 120.681 5.40051 119.604 6.05006L120.638 7.76244ZM123.215 7.08594C124.721 7.08594 125.795 7.55048 126.564 8.39845L128.045 7.05468C126.83 5.71515 125.177 5.08594 123.215 5.08594V7.08594ZM126.567 8.40133C127.346 9.25376 127.805 10.531 127.805 12.3789H129.805C129.805 10.2112 129.263 8.38687 128.043 7.05179L126.567 8.40133ZM127.805 12.3789V13.7617H129.805V12.3789H127.805ZM128.805 12.7617H120.73V14.7617H128.805V12.7617ZM119.739 13.8927C119.875 14.9225 120.297 15.8129 121.04 16.4919L122.39 15.0159C122.039 14.6949 121.805 14.2572 121.722 13.6308L119.739 13.8927ZM121.045 16.4967C121.808 17.184 122.756 17.5039 123.812 17.5039V15.5039C123.182 15.5039 122.731 15.3238 122.384 15.0111L121.045 16.4967ZM123.812 17.5039C125.394 17.5039 126.718 16.9127 127.661 15.6994L126.081 14.4724C125.555 15.1498 124.84 15.5039 123.812 15.5039V17.5039ZM126.125 15.752L127.789 17.6153L129.281 16.2831L127.617 14.4198L126.125 15.752ZM127.718 16.3722C127.319 16.9369 126.773 17.3918 126.048 17.7312L126.897 19.5423C127.907 19.0691 128.735 18.399 129.352 17.5263L127.718 16.3722ZM126.055 17.728C125.332 18.0602 124.516 18.2344 123.59 18.2344V20.2344C124.773 20.2344 125.879 20.0101 126.89 19.5454L126.055 17.728ZM123.203 7.82812C122.28 7.82812 121.459 8.15154 120.831 8.82639L122.294 10.1892C122.51 9.95783 122.782 9.82812 123.203 9.82812V7.82812ZM120.824 8.83324C120.23 9.48344 119.91 10.3467 119.775 11.3156L121.756 11.5907C121.856 10.872 122.067 10.4384 122.301 10.1824L120.824 8.83324ZM120.766 12.4531H125.477V10.4531H120.766V12.4531ZM126.477 11.4531V11.1836H124.477V11.4531H126.477ZM126.476 11.1628C126.457 10.2465 126.204 9.39657 125.588 8.75611L124.146 10.1423C124.312 10.3144 124.465 10.6207 124.477 11.2044L126.476 11.1628ZM125.595 8.763C124.968 8.09891 124.12 7.82812 123.203 7.82812V9.82812C123.723 9.82812 123.985 9.9714 124.14 10.1354L125.595 8.763Z" fill="black"/>
</g>
<defs>
<filter id="filter0_dddd" x="0.46875" y="0" width="130.336" height="24.2344" filterUnits="userSpaceOnUse" color-interpolation-filters="sRGB">
<feFlood flood-opacity="0" result="BackgroundImageFix"/>
<feColorMatrix in="SourceAlpha" type="matrix" values="0 0 0 0 0 0 0 0 0 0 0 0 0 0 0 0 0 0 127 0"/>
<feOffset dx="1" dy="4"/>
<feColorMatrix type="matrix" values="0 0 0 0 0 0 0 0 0 0 0 0 0 0 0 0 0 0 1 0"/>
<feBlend mode="normal" in2="BackgroundImageFix" result="effect1_dropShadow"/>
<feColorMatrix in="SourceAlpha" type="matrix" values="0 0 0 0 0 0 0 0 0 0 0 0 0 0 0 0 0 0 127 0"/>
<feOffset dx="1" dy="3"/>
<feColorMatrix type="matrix" values="0 0 0 0 0 0 0 0 0 0 0 0 0 0 0 0 0 0 1 0"/>
<feBlend mode="normal" in2="effect1_dropShadow" result="effect2_dropShadow"/>
<feColorMatrix in="SourceAlpha" type="matrix" values="0 0 0 0 0 0 0 0 0 0 0 0 0 0 0 0 0 0 127 0"/>
<feOffset dx="1" dy="2"/>
<feColorMatrix type="matrix" values="0 0 0 0 0 0 0 0 0 0 0 0 0 0 0 0 0 0 1 0"/>
<feBlend mode="normal" in2="effect2_dropShadow" result="effect3_dropShadow"/>
<feColorMatrix in="SourceAlpha" type="matrix" values="0 0 0 0 0 0 0 0 0 0 0 0 0 0 0 0 0 0 127 0"/>
<feOffset dx="1" dy="1"/>
<feColorMatrix type="matrix" values="0 0 0 0 0 0 0 0 0 0 0 0 0 0 0 0 0 0 1 0"/>
<feBlend mode="normal" in2="effect3_dropShadow" result="effect4_dropShadow"/>
<feBlend mode="normal" in="SourceGraphic" in2="effect4_dropShadow" result="shape"/>
</filter>
</defs>
</svg>
