<svg width="38" height="65" viewBox="0 0 38 65" fill="none" xmlns="http://www.w3.org/2000/svg">
<g filter="url(#filter0_dddd)">
<path d="M32.373 56H2.60742V49.5547L16.3184 35.1406C19.6973 31.293 21.3867 28.2363 21.3867 25.9707C21.3867 24.1348 20.9863 22.7383 20.1855 21.7812C19.3848 20.8242 18.2227 20.3457 16.6992 20.3457C15.1953 20.3457 13.9746 20.9902 13.0371 22.2793C12.0996 23.5488 11.6309 25.1406 11.6309 27.0547H1.72852C1.72852 24.4375 2.38281 22.0254 3.69141 19.8184C5 17.5918 6.81641 15.8535 9.14062 14.6035C11.4648 13.3535 14.0625 12.7285 16.9336 12.7285C21.543 12.7285 25.0879 13.793 27.5684 15.9219C30.0684 18.0508 31.3184 21.1074 31.3184 25.0918C31.3184 26.7715 31.0059 28.4121 30.3809 30.0137C29.7559 31.5957 28.7793 33.2656 27.4512 35.0234C26.1426 36.7617 24.0234 39.0957 21.0938 42.0254L15.5859 48.3828H32.373V56Z" fill="#FFE700"/>
<path d="M32.373 56V57H33.373V56H32.373ZM2.60742 56H1.60742V57H2.60742V56ZM2.60742 49.5547L1.88286 48.8655L1.60742 49.155V49.5547H2.60742ZM16.3184 35.1406L17.0429 35.8298L17.0566 35.8154L17.0698 35.8005L16.3184 35.1406ZM13.0371 22.2793L13.8416 22.8734L13.8458 22.8675L13.0371 22.2793ZM11.6309 27.0547V28.0547H12.6309V27.0547H11.6309ZM1.72852 27.0547H0.728516V28.0547H1.72852V27.0547ZM3.69141 19.8184L4.55158 20.3284L4.55353 20.325L3.69141 19.8184ZM27.5684 15.9219L26.9171 16.6807L26.92 16.6832L27.5684 15.9219ZM30.3809 30.0137L31.3109 30.3811L31.3124 30.3772L30.3809 30.0137ZM27.4512 35.0234L26.6533 34.4206L26.6523 34.422L27.4512 35.0234ZM21.0938 42.0254L20.3866 41.3183L20.3614 41.3436L20.3379 41.3706L21.0938 42.0254ZM15.5859 48.3828L14.8301 47.728L13.3965 49.3828H15.5859V48.3828ZM32.373 48.3828H33.373V47.3828H32.373V48.3828ZM32.373 55H2.60742V57H32.373V55ZM3.60742 56V49.5547H1.60742V56H3.60742ZM3.33198 50.2439L17.0429 35.8298L15.5938 34.4514L1.88286 48.8655L3.33198 50.2439ZM17.0698 35.8005C18.7869 33.8451 20.1033 32.0592 20.9948 30.4461C21.881 28.8429 22.3867 27.3402 22.3867 25.9707H20.3867C20.3867 26.8668 20.0477 28.0253 19.2444 29.4787C18.4465 30.9222 17.2287 32.5885 15.567 34.4808L17.0698 35.8005ZM22.3867 25.9707C22.3867 24.0075 21.9607 22.3445 20.9525 21.1395L19.4186 22.423C20.0119 23.1321 20.3867 24.262 20.3867 25.9707H22.3867ZM20.9525 21.1395C19.9201 19.9057 18.4471 19.3457 16.6992 19.3457V21.3457C17.9983 21.3457 18.8495 21.7428 19.4186 22.423L20.9525 21.1395ZM16.6992 19.3457C14.8536 19.3457 13.3408 20.1615 12.2284 21.6911L13.8458 22.8675C14.6084 21.819 15.5371 21.3457 16.6992 21.3457V19.3457ZM12.2327 21.6853C11.143 23.1608 10.6309 24.9734 10.6309 27.0547H12.6309C12.6309 25.3079 13.0562 23.9368 13.8415 22.8733L12.2327 21.6853ZM11.6309 26.0547H1.72852V28.0547H11.6309V26.0547ZM2.72852 27.0547C2.72852 24.6132 3.33642 22.3778 4.55157 20.3284L2.83124 19.3083C1.42921 21.673 0.728516 24.2618 0.728516 27.0547H2.72852ZM4.55353 20.325C5.76722 18.26 7.44765 16.6495 9.61428 15.4842L8.66697 13.7228C6.18516 15.0576 4.23278 16.9236 2.82928 19.3117L4.55353 20.325ZM9.61428 15.4842C11.7803 14.3193 14.2129 13.7285 16.9336 13.7285V11.7285C13.9121 11.7285 11.1494 12.3877 8.66697 13.7228L9.61428 15.4842ZM16.9336 13.7285C21.401 13.7285 24.68 14.7607 26.9171 16.6807L28.2196 15.163C25.4958 12.8252 21.6849 11.7285 16.9336 11.7285V13.7285ZM26.92 16.6832C29.1496 18.5818 30.3184 21.332 30.3184 25.0918H32.3184C32.3184 20.8829 30.9872 17.5197 28.2167 15.1605L26.92 16.6832ZM30.3184 25.0918C30.3184 26.6442 30.0301 28.1617 29.4493 29.6501L31.3124 30.3772C31.9816 28.6626 32.3184 26.8988 32.3184 25.0918H30.3184ZM29.4508 29.6462C28.8671 31.1237 27.9421 32.7149 26.6533 34.4206L28.249 35.6263C29.6165 33.8163 30.6446 32.0677 31.3109 30.3811L29.4508 29.6462ZM26.6523 34.422C25.3866 36.1033 23.3072 38.3978 20.3866 41.3183L21.8009 42.7325C24.7397 39.7936 26.8986 37.4202 28.2501 35.6249L26.6523 34.422ZM20.3379 41.3706L14.8301 47.728L16.3417 49.0376L21.8496 42.6802L20.3379 41.3706ZM15.5859 49.3828H32.373V47.3828H15.5859V49.3828ZM31.373 48.3828V56H33.373V48.3828H31.373Z" fill="black"/>
</g>
<g filter="url(#filter1_dddd)">
<mask id="path-3-outside-1" maskUnits="userSpaceOnUse" x="10" y="1" width="14" height="14" fill="black">
<rect fill="white" x="10" y="1" width="14" height="14"/>
<path fill-rule="evenodd" clip-rule="evenodd" d="M15.0212 9.97872V14H18.9787V9.97872H23V6.02128H18.9787V2H15.0212V6.02128H11V9.97872H15.0212Z"/>
</mask>
<path fill-rule="evenodd" clip-rule="evenodd" d="M15.0212 9.97872V14H18.9787V9.97872H23V6.02128H18.9787V2H15.0212V6.02128H11V9.97872H15.0212Z" fill="#FFE700"/>
<path d="M15.0212 14H14.0212V15H15.0212V14ZM15.0212 9.97872H16.0212V8.97872H15.0212V9.97872ZM18.9787 14V15H19.9787V14H18.9787ZM18.9787 9.97872V8.97872H17.9787V9.97872H18.9787ZM23 9.97872V10.9787H24V9.97872H23ZM23 6.02128H24V5.02128H23V6.02128ZM18.9787 6.02128H17.9787V7.02128H18.9787V6.02128ZM18.9787 2H19.9787V1H18.9787V2ZM15.0212 2V1H14.0212V2H15.0212ZM15.0212 6.02128V7.02128H16.0212V6.02128H15.0212ZM11 6.02128V5.02128H10V6.02128H11ZM11 9.97872H10V10.9787H11V9.97872ZM16.0212 14V9.97872H14.0212V14H16.0212ZM18.9787 13H15.0212V15H18.9787V13ZM17.9787 9.97872V14H19.9787V9.97872H17.9787ZM23 8.97872H18.9787V10.9787H23V8.97872ZM22 6.02128V9.97872H24V6.02128H22ZM18.9787 7.02128H23V5.02128H18.9787V7.02128ZM17.9787 2V6.02128H19.9787V2H17.9787ZM15.0212 3H18.9787V1H15.0212V3ZM16.0212 6.02128V2H14.0212V6.02128H16.0212ZM11 7.02128H15.0212V5.02128H11V7.02128ZM12 9.97872V6.02128H10V9.97872H12ZM15.0212 8.97872H11V10.9787H15.0212V8.97872Z" fill="black" mask="url(#path-3-outside-1)"/>
</g>
<defs>
<filter id="filter0_dddd" x="0.728516" y="11.7285" width="33.6445" height="49.2715" filterUnits="userSpaceOnUse" color-interpolation-filters="sRGB">
<feFlood flood-opacity="0" result="BackgroundImageFix"/>
<feColorMatrix in="SourceAlpha" type="matrix" values="0 0 0 0 0 0 0 0 0 0 0 0 0 0 0 0 0 0 127 0"/>
<feOffset dx="1" dy="4"/>
<feColorMatrix type="matrix" values="0 0 0 0 0 0 0 0 0 0 0 0 0 0 0 0 0 0 1 0"/>
<feBlend mode="normal" in2="BackgroundImageFix" result="effect1_dropShadow"/>
<feColorMatrix in="SourceAlpha" type="matrix" values="0 0 0 0 0 0 0 0 0 0 0 0 0 0 0 0 0 0 127 0"/>
<feOffset dx="1" dy="3"/>
<feColorMatrix type="matrix" values="0 0 0 0 0 0 0 0 0 0 0 0 0 0 0 0 0 0 1 0"/>
<feBlend mode="normal" in2="effect1_dropShadow" result="effect2_dropShadow"/>
<feColorMatrix in="SourceAlpha" type="matrix" values="0 0 0 0 0 0 0 0 0 0 0 0 0 0 0 0 0 0 127 0"/>
<feOffset dx="1" dy="2"/>
<feColorMatrix type="matrix" values="0 0 0 0 0 0 0 0 0 0 0 0 0 0 0 0 0 0 1 0"/>
<feBlend mode="normal" in2="effect2_dropShadow" result="effect3_dropShadow"/>
<feColorMatrix in="SourceAlpha" type="matrix" values="0 0 0 0 0 0 0 0 0 0 0 0 0 0 0 0 0 0 127 0"/>
<feOffset dx="1" dy="1"/>
<feColorMatrix type="matrix" values="0 0 0 0 0 0 0 0 0 0 0 0 0 0 0 0 0 0 1 0"/>
<feBlend mode="normal" in2="effect3_dropShadow" result="effect4_dropShadow"/>
<feBlend mode="normal" in="SourceGraphic" in2="effect4_dropShadow" result="shape"/>
</filter>
<filter id="filter1_dddd" x="10" y="1" width="15" height="18" filterUnits="userSpaceOnUse" color-interpolation-filters="sRGB">
<feFlood flood-opacity="0" result="BackgroundImageFix"/>
<feColorMatrix in="SourceAlpha" type="matrix" values="0 0 0 0 0 0 0 0 0 0 0 0 0 0 0 0 0 0 127 0"/>
<feOffset dx="1" dy="4"/>
<feColorMatrix type="matrix" values="0 0 0 0 0 0 0 0 0 0 0 0 0 0 0 0 0 0 1 0"/>
<feBlend mode="normal" in2="BackgroundImageFix" result="effect1_dropShadow"/>
<feColorMatrix in="SourceAlpha" type="matrix" values="0 0 0 0 0 0 0 0 0 0 0 0 0 0 0 0 0 0 127 0"/>
<feOffset dx="1" dy="3"/>
<feColorMatrix type="matrix" values="0 0 0 0 0 0 0 0 0 0 0 0 0 0 0 0 0 0 1 0"/>
<feBlend mode="normal" in2="effect1_dropShadow" result="effect2_dropShadow"/>
<feColorMatrix in="SourceAlpha" type="matrix" values="0 0 0 0 0 0 0 0 0 0 0 0 0 0 0 0 0 0 127 0"/>
<feOffset dx="1" dy="2"/>
<feColorMatrix type="matrix" values="0 0 0 0 0 0 0 0 0 0 0 0 0 0 0 0 0 0 1 0"/>
<feBlend mode="normal" in2="effect2_dropShadow" result="effect3_dropShadow"/>
<feColorMatrix in="SourceAlpha" type="matrix" values="0 0 0 0 0 0 0 0 0 0 0 0 0 0 0 0 0 0 127 0"/>
<feOffset dx="1" dy="1"/>
<feColorMatrix type="matrix" values="0 0 0 0 0 0 0 0 0 0 0 0 0 0 0 0 0 0 1 0"/>
<feBlend mode="normal" in2="effect3_dropShadow" result="effect4_dropShadow"/>
<feBlend mode="normal" in="SourceGraphic" in2="effect4_dropShadow" result="shape"/>
</filter>
</defs>
</svg>
