<svg width="36" height="56" viewBox="0 0 36 56" fill="none" xmlns="http://www.w3.org/2000/svg">
<g filter="url(#filter0_dddd)">
<path d="M18.336 10.0388H32C33.1046 10.0388 34 10.9342 34 12.0388V23.0969C34 24.2015 33.1046 25.0969 32 25.0969H25.2648L19.0342 19.0205C18.4007 18.4027 17.336 18.8515 17.336 19.7364V32.583C17.336 33.4743 16.258 33.9203 15.6283 33.2895L1.39985 19.0378C0.62462 18.2613 0.61975 17.0052 1.38894 16.2227L15.6228 1.74276C16.2503 1.10446 17.336 1.54874 17.336 2.44378V9.03876C17.336 9.59104 17.7837 10.0388 18.336 10.0388Z" fill="#C4C4C4"/>
<path d="M18.336 10.0388H32C33.1046 10.0388 34 10.9342 34 12.0388V23.0969C34 24.2015 33.1046 25.0969 32 25.0969H25.2648L19.0342 19.0205C18.4007 18.4027 17.336 18.8515 17.336 19.7364V32.583C17.336 33.4743 16.258 33.9203 15.6283 33.2895L1.39985 19.0378C0.62462 18.2613 0.61975 17.0052 1.38894 16.2227L15.6228 1.74276C16.2503 1.10446 17.336 1.54874 17.336 2.44378V9.03876C17.336 9.59104 17.7837 10.0388 18.336 10.0388Z" stroke="black"/>
</g>
<g filter="url(#filter1_dddd)">
<path d="M16.664 42.9612H3C1.89543 42.9612 1 42.0658 1 40.9612V29.9031C1 28.7985 1.89543 27.9031 3 27.9031H9.73518L14.2677 32.3234C15.5346 33.559 17.664 32.6613 17.664 30.8915V20.417C17.664 19.5257 18.742 19.0797 19.3717 19.7105L33.6001 33.9622C34.3754 34.7387 34.3803 35.9948 33.6111 36.7773L19.3772 51.2572C18.7497 51.8955 17.664 51.4513 17.664 50.5562V43.9612C17.664 43.409 17.2163 42.9612 16.664 42.9612Z" fill="#C4C4C4"/>
<path d="M16.664 42.9612H3C1.89543 42.9612 1 42.0658 1 40.9612V29.9031C1 28.7985 1.89543 27.9031 3 27.9031H9.73518L14.2677 32.3234C15.5346 33.559 17.664 32.6613 17.664 30.8915V20.417C17.664 19.5257 18.742 19.0797 19.3717 19.7105L33.6001 33.9622C34.3754 34.7387 34.3803 35.9948 33.6111 36.7773L19.3772 51.2572C18.7497 51.8955 17.664 51.4513 17.664 50.5562V43.9612C17.664 43.409 17.2163 42.9612 16.664 42.9612Z" stroke="black"/>
</g>
<defs>
<filter id="filter0_dddd" x="0.31543" y="0.940765" width="35.1848" height="36.1452" filterUnits="userSpaceOnUse" color-interpolation-filters="sRGB">
<feFlood flood-opacity="0" result="BackgroundImageFix"/>
<feColorMatrix in="SourceAlpha" type="matrix" values="0 0 0 0 0 0 0 0 0 0 0 0 0 0 0 0 0 0 127 0"/>
<feOffset dx="1" dy="2"/>
<feColorMatrix type="matrix" values="0 0 0 0 0 0 0 0 0 0 0 0 0 0 0 0 0 0 1 0"/>
<feBlend mode="normal" in2="BackgroundImageFix" result="effect1_dropShadow"/>
<feColorMatrix in="SourceAlpha" type="matrix" values="0 0 0 0 0 0 0 0 0 0 0 0 0 0 0 0 0 0 127 0"/>
<feOffset dx="1" dy="1"/>
<feColorMatrix type="matrix" values="0 0 0 0 0 0 0 0 0 0 0 0 0 0 0 0 0 0 1 0"/>
<feBlend mode="normal" in2="effect1_dropShadow" result="effect2_dropShadow"/>
<feColorMatrix in="SourceAlpha" type="matrix" values="0 0 0 0 0 0 0 0 0 0 0 0 0 0 0 0 0 0 127 0"/>
<feOffset dx="1" dy="3"/>
<feColorMatrix type="matrix" values="0 0 0 0 0 0 0 0 0 0 0 0 0 0 0 0 0 0 1 0"/>
<feBlend mode="normal" in2="effect2_dropShadow" result="effect3_dropShadow"/>
<feColorMatrix in="SourceAlpha" type="matrix" values="0 0 0 0 0 0 0 0 0 0 0 0 0 0 0 0 0 0 127 0"/>
<feOffset dx="1" dy="3"/>
<feColorMatrix type="matrix" values="0 0 0 0 0 0 0 0 0 0 0 0 0 0 0 0 0 0 1 0"/>
<feBlend mode="normal" in2="effect3_dropShadow" result="effect4_dropShadow"/>
<feBlend mode="normal" in="SourceGraphic" in2="effect4_dropShadow" result="shape"/>
</filter>
<filter id="filter1_dddd" x="0.5" y="18.914" width="35.1848" height="36.1452" filterUnits="userSpaceOnUse" color-interpolation-filters="sRGB">
<feFlood flood-opacity="0" result="BackgroundImageFix"/>
<feColorMatrix in="SourceAlpha" type="matrix" values="0 0 0 0 0 0 0 0 0 0 0 0 0 0 0 0 0 0 127 0"/>
<feOffset dx="1" dy="2"/>
<feColorMatrix type="matrix" values="0 0 0 0 0 0 0 0 0 0 0 0 0 0 0 0 0 0 1 0"/>
<feBlend mode="normal" in2="BackgroundImageFix" result="effect1_dropShadow"/>
<feColorMatrix in="SourceAlpha" type="matrix" values="0 0 0 0 0 0 0 0 0 0 0 0 0 0 0 0 0 0 127 0"/>
<feOffset dx="1" dy="1"/>
<feColorMatrix type="matrix" values="0 0 0 0 0 0 0 0 0 0 0 0 0 0 0 0 0 0 1 0"/>
<feBlend mode="normal" in2="effect1_dropShadow" result="effect2_dropShadow"/>
<feColorMatrix in="SourceAlpha" type="matrix" values="0 0 0 0 0 0 0 0 0 0 0 0 0 0 0 0 0 0 127 0"/>
<feOffset dx="1" dy="3"/>
<feColorMatrix type="matrix" values="0 0 0 0 0 0 0 0 0 0 0 0 0 0 0 0 0 0 1 0"/>
<feBlend mode="normal" in2="effect2_dropShadow" result="effect3_dropShadow"/>
<feColorMatrix in="SourceAlpha" type="matrix" values="0 0 0 0 0 0 0 0 0 0 0 0 0 0 0 0 0 0 127 0"/>
<feOffset dx="1" dy="3"/>
<feColorMatrix type="matrix" values="0 0 0 0 0 0 0 0 0 0 0 0 0 0 0 0 0 0 1 0"/>
<feBlend mode="normal" in2="effect3_dropShadow" result="effect4_dropShadow"/>
<feBlend mode="normal" in="SourceGraphic" in2="effect4_dropShadow" result="shape"/>
</filter>
</defs>
</svg>
