<svg width="46" height="61" viewBox="0 0 46 61" fill="none" xmlns="http://www.w3.org/2000/svg">
<g filter="url(#filter0_dddd)">
<path fill-rule="evenodd" clip-rule="evenodd" d="M1.10552 5.9434C2.55306 8.9264 10.6977 31.4617 12.3609 54.3965C12.4064 55.0245 13.0121 55.4594 13.6238 55.31C21.1659 53.468 25.9502 53.7137 33.5816 56.498C34.2328 56.7356 34.9337 56.2645 34.9483 55.5716C35.3432 36.8921 35.6079 25.9927 43.6696 8.1287C45.8574 2.36745 36.7082 3.75809 30.1445 16.6712C33.3269 16.8699 32.7302 21.4392 30.1445 21.4392C27.5589 21.4392 26.5644 16.8699 30.1445 16.6712C28.0996 6.81815 24.9834 -0.215177 23.1831 1.17547C19.0681 4.35409 17.6169 8.02614 16.2217 16.6712C20.3986 18.0619 18.2107 21.2405 16.4206 21.2405C14.6305 21.2405 12.6416 17.8632 16.2217 16.6712C14.0332 10.1153 -0.367536 2.90782 1.10552 5.9434ZM17.2453 38.5601C16.5742 37.3643 16.2217 36.0161 16.2217 34.6448V34.0912C16.2217 33.7416 16.3133 33.3982 16.4874 33.095L21.4114 24.5226C22.1882 23.1701 24.1453 23.1878 24.8976 24.554L28.8744 31.776C29.4462 32.8144 29.7461 33.9807 29.7461 35.1662C29.7461 36.2002 29.5179 37.2214 29.0779 38.1571L25.2332 46.333C24.5412 47.8048 22.4752 47.879 21.6793 46.4608L17.2453 38.5601Z" fill="#F3AA34"/>
<path d="M16.2217 16.6712C14.0332 10.1153 -0.367536 2.90782 1.10552 5.9434C2.55306 8.9264 10.6977 31.4617 12.3609 54.3965C12.4064 55.0245 13.0121 55.4594 13.6238 55.31C21.1659 53.468 25.9502 53.7137 33.5816 56.498C34.2328 56.7356 34.9337 56.2645 34.9483 55.5716C35.3432 36.8921 35.6079 25.9927 43.6696 8.1287C45.8574 2.36745 36.7082 3.75809 30.1445 16.6712M16.2217 16.6712C20.3986 18.0619 18.2107 21.2405 16.4206 21.2405C14.6305 21.2405 12.6416 17.8632 16.2217 16.6712ZM16.2217 16.6712C17.6169 8.02614 19.0681 4.35409 23.1831 1.17547C24.9834 -0.215177 28.0996 6.81815 30.1445 16.6712M30.1445 16.6712C33.3269 16.8699 32.7302 21.4392 30.1445 21.4392C27.5589 21.4392 26.5644 16.8699 30.1445 16.6712ZM29.7461 35.1662V35.1662C29.7461 36.2002 29.5179 37.2214 29.0779 38.1571L25.2332 46.333C24.5412 47.8048 22.4752 47.879 21.6793 46.4608L17.2453 38.5601C16.5742 37.3643 16.2217 36.0161 16.2217 34.6448V34.0912C16.2217 33.7416 16.3133 33.3982 16.4875 33.095L21.4114 24.5226C22.1882 23.1701 24.1453 23.1878 24.8976 24.554L28.8744 31.776C29.4462 32.8144 29.7461 33.9807 29.7461 35.1662Z" stroke="black"/>
</g>
<defs>
<filter id="filter0_dddd" x="0.5" y="0.500031" width="44.9989" height="59.5604" filterUnits="userSpaceOnUse" color-interpolation-filters="sRGB">
<feFlood flood-opacity="0" result="BackgroundImageFix"/>
<feColorMatrix in="SourceAlpha" type="matrix" values="0 0 0 0 0 0 0 0 0 0 0 0 0 0 0 0 0 0 127 0"/>
<feOffset dx="1" dy="2"/>
<feColorMatrix type="matrix" values="0 0 0 0 0.921569 0 0 0 0 0.490196 0 0 0 0 0.2 0 0 0 1 0"/>
<feBlend mode="normal" in2="BackgroundImageFix" result="effect1_dropShadow"/>
<feColorMatrix in="SourceAlpha" type="matrix" values="0 0 0 0 0 0 0 0 0 0 0 0 0 0 0 0 0 0 127 0"/>
<feOffset dx="1" dy="1"/>
<feColorMatrix type="matrix" values="0 0 0 0 0.921569 0 0 0 0 0.490196 0 0 0 0 0.2 0 0 0 1 0"/>
<feBlend mode="normal" in2="effect1_dropShadow" result="effect2_dropShadow"/>
<feColorMatrix in="SourceAlpha" type="matrix" values="0 0 0 0 0 0 0 0 0 0 0 0 0 0 0 0 0 0 127 0"/>
<feOffset dx="1" dy="3"/>
<feColorMatrix type="matrix" values="0 0 0 0 0.921569 0 0 0 0 0.490196 0 0 0 0 0.2 0 0 0 1 0"/>
<feBlend mode="normal" in2="effect2_dropShadow" result="effect3_dropShadow"/>
<feColorMatrix in="SourceAlpha" type="matrix" values="0 0 0 0 0 0 0 0 0 0 0 0 0 0 0 0 0 0 127 0"/>
<feOffset dx="1" dy="3"/>
<feColorMatrix type="matrix" values="0 0 0 0 0.921569 0 0 0 0 0.490196 0 0 0 0 0.2 0 0 0 1 0"/>
<feBlend mode="normal" in2="effect3_dropShadow" result="effect4_dropShadow"/>
<feBlend mode="normal" in="SourceGraphic" in2="effect4_dropShadow" result="shape"/>
</filter>
</defs>
</svg>
